# xmcd CD database file
#
# Track frame offsets:
#	150
#	18719
#	36504
#	47981
#	64538
#	76567
#	88934
#	103774
#	120866
#	138168
#	150095
#	161869
#
# Disc length: 2307 seconds
#
# Revision: 0
# Processed by: cddbd v1.5.2PL0 Copyright (c) Steve Scherf et al.
# Submitted via: CDex 1.70beta2
#
DISCID=8f09010c
DTITLE=Laine, Cleo - Cleo's Choice
DYEAR=1993
DGENRE=Jazz
TTITLE0=Something's Gotta Give
TTITLE1=Unforgettable
TTITLE2=All of You
TTITLE3=Too Late Now
TTITLE4=I'll Remember April
TTITLE5=Hand Me Down Love 
TTITLE6=Teach Me Tonight
TTITLE7=Young At Heart
TTITLE8=He Needs Me
TTITLE9=Summer Is A Coming
TTITLE10=April In Paris
TTITLE11=They Were Right 
EXTD=YEAR: 1993
EXTT0=
EXTT1=
EXTT2=
EXTT3=
EXTT4=
EXTT5=
EXTT6=
EXTT7=
EXTT8=
EXTT9=
EXTT10=
EXTT11=
PLAYORDER=
